<svg width="1440" height="70" viewBox="0 0 1440 70" fill="none" xmlns="http://www.w3.org/2000/svg">
<rect width="1440" height="70" fill="#165DF5"/>
<path d="M81.916 38.012H77.842L77.142 40H75.476L78.962 30.256H80.81L84.296 40H82.616L81.916 38.012ZM81.468 36.71L79.886 32.188L78.29 36.71H81.468ZM89.7037 32.16C90.3104 32.16 90.8517 32.286 91.3277 32.538C91.8131 32.79 92.1911 33.1633 92.4617 33.658C92.7324 34.1527 92.8677 34.75 92.8677 35.45V40H91.2857V35.688C91.2857 34.9973 91.1131 34.47 90.7677 34.106C90.4224 33.7327 89.9511 33.546 89.3537 33.546C88.7564 33.546 88.2804 33.7327 87.9257 34.106C87.5804 34.47 87.4077 34.9973 87.4077 35.688V40H85.8117V32.286H87.4077V33.168C87.6691 32.8507 88.0004 32.6033 88.4017 32.426C88.8124 32.2487 89.2464 32.16 89.7037 32.16ZM94.3715 36.108C94.3715 35.3333 94.5302 34.6473 94.8475 34.05C95.1742 33.4527 95.6128 32.9907 96.1635 32.664C96.7235 32.328 97.3395 32.16 98.0115 32.16C98.6182 32.16 99.1455 32.2813 99.5935 32.524C100.051 32.7573 100.415 33.0513 100.686 33.406V32.286H102.296V40H100.686V38.852C100.415 39.216 100.046 39.5193 99.5795 39.762C99.1128 40.0047 98.5808 40.126 97.9835 40.126C97.3208 40.126 96.7142 39.958 96.1635 39.622C95.6128 39.2767 95.1742 38.8007 94.8475 38.194C94.5302 37.578 94.3715 36.8827 94.3715 36.108ZM100.686 36.136C100.686 35.604 100.574 35.142 100.35 34.75C100.135 34.358 99.8502 34.0593 99.4955 33.854C99.1408 33.6487 98.7582 33.546 98.3475 33.546C97.9368 33.546 97.5542 33.6487 97.1995 33.854C96.8448 34.05 96.5555 34.344 96.3315 34.736C96.1168 35.1187 96.0095 35.576 96.0095 36.108C96.0095 36.64 96.1168 37.1067 96.3315 37.508C96.5555 37.9093 96.8448 38.2173 97.1995 38.432C97.5635 38.6373 97.9462 38.74 98.3475 38.74C98.7582 38.74 99.1408 38.6373 99.4955 38.432C99.8502 38.2267 100.135 37.928 100.35 37.536C100.574 37.1347 100.686 36.668 100.686 36.136ZM111.235 40.098C110.581 40.098 109.993 39.986 109.471 39.762C108.948 39.5287 108.537 39.202 108.239 38.782C107.94 38.362 107.791 37.872 107.791 37.312H109.499C109.536 37.732 109.699 38.0773 109.989 38.348C110.287 38.6187 110.703 38.754 111.235 38.754C111.785 38.754 112.215 38.6233 112.523 38.362C112.831 38.0913 112.985 37.746 112.985 37.326C112.985 36.9993 112.887 36.7333 112.691 36.528C112.504 36.3227 112.266 36.164 111.977 36.052C111.697 35.94 111.305 35.8187 110.801 35.688C110.166 35.52 109.648 35.352 109.247 35.184C108.855 35.0067 108.519 34.736 108.239 34.372C107.959 34.008 107.819 33.5227 107.819 32.916C107.819 32.356 107.959 31.866 108.239 31.446C108.519 31.026 108.911 30.704 109.415 30.48C109.919 30.256 110.502 30.144 111.165 30.144C112.107 30.144 112.877 30.382 113.475 30.858C114.081 31.3247 114.417 31.9687 114.483 32.79H112.719C112.691 32.4353 112.523 32.132 112.215 31.88C111.907 31.628 111.501 31.502 110.997 31.502C110.539 31.502 110.166 31.6187 109.877 31.852C109.587 32.0853 109.443 32.4213 109.443 32.86C109.443 33.1587 109.531 33.406 109.709 33.602C109.895 33.7887 110.129 33.938 110.409 34.05C110.689 34.162 111.071 34.2833 111.557 34.414C112.201 34.5913 112.723 34.7687 113.125 34.946C113.535 35.1233 113.881 35.3987 114.161 35.772C114.45 36.136 114.595 36.626 114.595 37.242C114.595 37.7367 114.459 38.2033 114.189 38.642C113.927 39.0807 113.54 39.4353 113.027 39.706C112.523 39.9673 111.925 40.098 111.235 40.098ZM115.946 36.108C115.946 35.3333 116.104 34.6473 116.422 34.05C116.748 33.4527 117.187 32.9907 117.738 32.664C118.298 32.328 118.914 32.16 119.586 32.16C120.192 32.16 120.72 32.2813 121.168 32.524C121.625 32.7573 121.989 33.0513 122.26 33.406V32.286H123.87V40H122.26V38.852C121.989 39.216 121.62 39.5193 121.154 39.762C120.687 40.0047 120.155 40.126 119.558 40.126C118.895 40.126 118.288 39.958 117.738 39.622C117.187 39.2767 116.748 38.8007 116.422 38.194C116.104 37.578 115.946 36.8827 115.946 36.108ZM122.26 36.136C122.26 35.604 122.148 35.142 121.924 34.75C121.709 34.358 121.424 34.0593 121.07 33.854C120.715 33.6487 120.332 33.546 119.922 33.546C119.511 33.546 119.128 33.6487 118.774 33.854C118.419 34.05 118.13 34.344 117.906 34.736C117.691 35.1187 117.584 35.576 117.584 36.108C117.584 36.64 117.691 37.1067 117.906 37.508C118.13 37.9093 118.419 38.2173 118.774 38.432C119.138 38.6373 119.52 38.74 119.922 38.74C120.332 38.74 120.715 38.6373 121.07 38.432C121.424 38.2267 121.709 37.928 121.924 37.536C122.148 37.1347 122.26 36.668 122.26 36.136ZM132.91 32.286L128.178 43.626H126.526L128.094 39.874L125.056 32.286H126.834L129.004 38.166L131.258 32.286H132.91ZM137.348 33.588H135.92V40H134.31V33.588H133.4V32.286H134.31V31.74C134.31 30.8533 134.544 30.2093 135.01 29.808C135.486 29.3973 136.228 29.192 137.236 29.192V30.522C136.751 30.522 136.41 30.6153 136.214 30.802C136.018 30.9793 135.92 31.292 135.92 31.74V32.286H137.348V33.588ZM138.231 36.108C138.231 35.3333 138.39 34.6473 138.707 34.05C139.034 33.4527 139.472 32.9907 140.023 32.664C140.583 32.328 141.199 32.16 141.871 32.16C142.478 32.16 143.005 32.2813 143.453 32.524C143.91 32.7573 144.274 33.0513 144.545 33.406V32.286H146.155V40H144.545V38.852C144.274 39.216 143.906 39.5193 143.439 39.762C142.972 40.0047 142.44 40.126 141.843 40.126C141.18 40.126 140.574 39.958 140.023 39.622C139.472 39.2767 139.034 38.8007 138.707 38.194C138.39 37.578 138.231 36.8827 138.231 36.108ZM144.545 36.136C144.545 35.604 144.433 35.142 144.209 34.75C143.994 34.358 143.71 34.0593 143.355 33.854C143 33.6487 142.618 33.546 142.207 33.546C141.796 33.546 141.414 33.6487 141.059 33.854C140.704 34.05 140.415 34.344 140.191 34.736C139.976 35.1187 139.869 35.576 139.869 36.108C139.869 36.64 139.976 37.1067 140.191 37.508C140.415 37.9093 140.704 38.2173 141.059 38.432C141.423 38.6373 141.806 38.74 142.207 38.74C142.618 38.74 143 38.6373 143.355 38.432C143.71 38.2267 143.994 37.928 144.209 37.536C144.433 37.1347 144.545 36.668 144.545 36.136Z" fill="white"/>
<path d="M186.412 40L182.646 35.646V40H181.05V30.27H182.646V34.708L186.426 30.27H188.428L184.2 35.142L188.498 40H186.412ZM196.895 32.286V40H195.299V39.09C195.047 39.4073 194.716 39.6593 194.305 39.846C193.904 40.0233 193.475 40.112 193.017 40.112C192.411 40.112 191.865 39.986 191.379 39.734C190.903 39.482 190.525 39.1087 190.245 38.614C189.975 38.1193 189.839 37.522 189.839 36.822V32.286H191.421V36.584C191.421 37.2747 191.594 37.8067 191.939 38.18C192.285 38.544 192.756 38.726 193.353 38.726C193.951 38.726 194.422 38.544 194.767 38.18C195.122 37.8067 195.299 37.2747 195.299 36.584V32.286H196.895ZM200.597 33.406C200.831 33.014 201.139 32.7107 201.521 32.496C201.913 32.272 202.375 32.16 202.907 32.16V33.812H202.501C201.876 33.812 201.4 33.9707 201.073 34.288C200.756 34.6053 200.597 35.156 200.597 35.94V40H199.001V32.286H200.597V33.406ZM211.36 32.286V40H209.764V39.09C209.512 39.4073 209.181 39.6593 208.77 39.846C208.369 40.0233 207.94 40.112 207.482 40.112C206.876 40.112 206.33 39.986 205.844 39.734C205.368 39.482 204.99 39.1087 204.71 38.614C204.44 38.1193 204.304 37.522 204.304 36.822V32.286H205.886V36.584C205.886 37.2747 206.059 37.8067 206.404 38.18C206.75 38.544 207.221 38.726 207.818 38.726C208.416 38.726 208.887 38.544 209.232 38.18C209.587 37.8067 209.764 37.2747 209.764 36.584V32.286H211.36ZM222.804 32.16C223.411 32.16 223.952 32.286 224.428 32.538C224.913 32.79 225.291 33.1633 225.562 33.658C225.842 34.1527 225.982 34.75 225.982 35.45V40H224.4V35.688C224.4 34.9973 224.227 34.47 223.882 34.106C223.537 33.7327 223.065 33.546 222.468 33.546C221.871 33.546 221.395 33.7327 221.04 34.106C220.695 34.47 220.522 34.9973 220.522 35.688V40H218.94V35.688C218.94 34.9973 218.767 34.47 218.422 34.106C218.077 33.7327 217.605 33.546 217.008 33.546C216.411 33.546 215.935 33.7327 215.58 34.106C215.235 34.47 215.062 34.9973 215.062 35.688V40H213.466V32.286H215.062V33.168C215.323 32.8507 215.655 32.6033 216.056 32.426C216.457 32.2487 216.887 32.16 217.344 32.16C217.96 32.16 218.511 32.2907 218.996 32.552C219.481 32.8133 219.855 33.1913 220.116 33.686C220.349 33.2193 220.713 32.8507 221.208 32.58C221.703 32.3 222.235 32.16 222.804 32.16ZM230.813 40.126C230.206 40.126 229.66 40.0187 229.175 39.804C228.699 39.58 228.321 39.2813 228.041 38.908C227.761 38.5253 227.612 38.1007 227.593 37.634H229.245C229.273 37.9607 229.427 38.236 229.707 38.46C229.996 38.6747 230.356 38.782 230.785 38.782C231.233 38.782 231.578 38.698 231.821 38.53C232.073 38.3527 232.199 38.1287 232.199 37.858C232.199 37.5687 232.059 37.354 231.779 37.214C231.508 37.074 231.074 36.92 230.477 36.752C229.898 36.5933 229.427 36.4393 229.063 36.29C228.699 36.1407 228.382 35.912 228.111 35.604C227.85 35.296 227.719 34.89 227.719 34.386C227.719 33.9753 227.84 33.602 228.083 33.266C228.326 32.9207 228.671 32.65 229.119 32.454C229.576 32.258 230.099 32.16 230.687 32.16C231.564 32.16 232.269 32.384 232.801 32.832C233.342 33.2707 233.632 33.8727 233.669 34.638H232.073C232.045 34.2927 231.905 34.0173 231.653 33.812C231.401 33.6067 231.06 33.504 230.631 33.504C230.211 33.504 229.889 33.5833 229.665 33.742C229.441 33.9007 229.329 34.1107 229.329 34.372C229.329 34.5773 229.404 34.75 229.553 34.89C229.702 35.03 229.884 35.142 230.099 35.226C230.314 35.3007 230.631 35.3987 231.051 35.52C231.611 35.6693 232.068 35.8233 232.423 35.982C232.787 36.1313 233.1 36.3553 233.361 36.654C233.622 36.9527 233.758 37.3493 233.767 37.844C233.767 38.2827 233.646 38.6747 233.403 39.02C233.16 39.3653 232.815 39.636 232.367 39.832C231.928 40.028 231.41 40.126 230.813 40.126ZM234.959 36.108C234.959 35.3333 235.118 34.6473 235.435 34.05C235.762 33.4527 236.201 32.9907 236.751 32.664C237.311 32.328 237.927 32.16 238.599 32.16C239.206 32.16 239.733 32.2813 240.181 32.524C240.639 32.7573 241.003 33.0513 241.273 33.406V32.286H242.883V40H241.273V38.852C241.003 39.216 240.634 39.5193 240.167 39.762C239.701 40.0047 239.169 40.126 238.571 40.126C237.909 40.126 237.302 39.958 236.751 39.622C236.201 39.2767 235.762 38.8007 235.435 38.194C235.118 37.578 234.959 36.8827 234.959 36.108ZM241.273 36.136C241.273 35.604 241.161 35.142 240.937 34.75C240.723 34.358 240.438 34.0593 240.083 33.854C239.729 33.6487 239.346 33.546 238.935 33.546C238.525 33.546 238.142 33.6487 237.787 33.854C237.433 34.05 237.143 34.344 236.919 34.736C236.705 35.1187 236.597 35.576 236.597 36.108C236.597 36.64 236.705 37.1067 236.919 37.508C237.143 37.9093 237.433 38.2173 237.787 38.432C238.151 38.6373 238.534 38.74 238.935 38.74C239.346 38.74 239.729 38.6373 240.083 38.432C240.438 38.2267 240.723 37.928 240.937 37.536C241.161 37.1347 241.273 36.668 241.273 36.136ZM246.576 29.64V40H244.98V29.64H246.576Z" fill="white"/>
<path d="M289.044 40H287.448L282.646 32.734V40H281.05V30.256H282.646L287.448 37.508V30.256H289.044V40ZM298.21 35.954C298.21 36.2433 298.191 36.5047 298.154 36.738H292.26C292.307 37.354 292.535 37.8487 292.946 38.222C293.357 38.5953 293.861 38.782 294.458 38.782C295.317 38.782 295.923 38.4227 296.278 37.704H298C297.767 38.4133 297.342 38.9967 296.726 39.454C296.119 39.902 295.363 40.126 294.458 40.126C293.721 40.126 293.058 39.9627 292.47 39.636C291.891 39.3 291.434 38.8333 291.098 38.236C290.771 37.6293 290.608 36.9293 290.608 36.136C290.608 35.3427 290.767 34.6473 291.084 34.05C291.411 33.4433 291.863 32.9767 292.442 32.65C293.03 32.3233 293.702 32.16 294.458 32.16C295.186 32.16 295.835 32.3187 296.404 32.636C296.973 32.9533 297.417 33.4013 297.734 33.98C298.051 34.5493 298.21 35.2073 298.21 35.954ZM296.544 35.45C296.535 34.862 296.325 34.3907 295.914 34.036C295.503 33.6813 294.995 33.504 294.388 33.504C293.837 33.504 293.366 33.6813 292.974 34.036C292.582 34.3813 292.349 34.8527 292.274 35.45H296.544ZM301.376 29.64V40H299.78V29.64H301.376ZM310.542 35.954C310.542 36.2433 310.523 36.5047 310.486 36.738H304.592C304.639 37.354 304.867 37.8487 305.278 38.222C305.689 38.5953 306.193 38.782 306.79 38.782C307.649 38.782 308.255 38.4227 308.61 37.704H310.332C310.099 38.4133 309.674 38.9967 309.058 39.454C308.451 39.902 307.695 40.126 306.79 40.126C306.053 40.126 305.39 39.9627 304.802 39.636C304.223 39.3 303.766 38.8333 303.43 38.236C303.103 37.6293 302.94 36.9293 302.94 36.136C302.94 35.3427 303.099 34.6473 303.416 34.05C303.743 33.4433 304.195 32.9767 304.774 32.65C305.362 32.3233 306.034 32.16 306.79 32.16C307.518 32.16 308.167 32.3187 308.736 32.636C309.305 32.9533 309.749 33.4013 310.066 33.98C310.383 34.5493 310.542 35.2073 310.542 35.954ZM308.876 35.45C308.867 34.862 308.657 34.3907 308.246 34.036C307.835 33.6813 307.327 33.504 306.72 33.504C306.169 33.504 305.698 33.6813 305.306 34.036C304.914 34.3813 304.681 34.8527 304.606 35.45H308.876ZM313.709 33.406C313.942 33.014 314.25 32.7107 314.633 32.496C315.025 32.272 315.487 32.16 316.019 32.16V33.812H315.613C314.987 33.812 314.511 33.9707 314.185 34.288C313.867 34.6053 313.709 35.156 313.709 35.94V40H312.113V32.286H313.709V33.406ZM328.332 30.27L325.112 36.472V40H323.516V36.472L320.282 30.27H322.06L324.314 35.044L326.568 30.27H328.332ZM329.067 36.108C329.067 35.3333 329.225 34.6473 329.543 34.05C329.869 33.4527 330.308 32.9907 330.859 32.664C331.419 32.328 332.035 32.16 332.707 32.16C333.313 32.16 333.841 32.2813 334.289 32.524C334.746 32.7573 335.11 33.0513 335.381 33.406V32.286H336.991V40H335.381V38.852C335.11 39.216 334.741 39.5193 334.275 39.762C333.808 40.0047 333.276 40.126 332.679 40.126C332.016 40.126 331.409 39.958 330.859 39.622C330.308 39.2767 329.869 38.8007 329.543 38.194C329.225 37.578 329.067 36.8827 329.067 36.108ZM335.381 36.136C335.381 35.604 335.269 35.142 335.045 34.75C334.83 34.358 334.545 34.0593 334.191 33.854C333.836 33.6487 333.453 33.546 333.043 33.546C332.632 33.546 332.249 33.6487 331.895 33.854C331.54 34.05 331.251 34.344 331.027 34.736C330.812 35.1187 330.705 35.576 330.705 36.108C330.705 36.64 330.812 37.1067 331.027 37.508C331.251 37.9093 331.54 38.2173 331.895 38.432C332.259 38.6373 332.641 38.74 333.043 38.74C333.453 38.74 333.836 38.6373 334.191 38.432C334.545 38.2267 334.83 37.928 335.045 37.536C335.269 37.1347 335.381 36.668 335.381 36.136ZM340.683 33.42C340.954 33.0653 341.322 32.7667 341.789 32.524C342.256 32.2813 342.783 32.16 343.371 32.16C344.043 32.16 344.654 32.328 345.205 32.664C345.765 32.9907 346.204 33.4527 346.521 34.05C346.838 34.6473 346.997 35.3333 346.997 36.108C346.997 36.8827 346.838 37.578 346.521 38.194C346.204 38.8007 345.765 39.2767 345.205 39.622C344.654 39.958 344.043 40.126 343.371 40.126C342.783 40.126 342.26 40.0093 341.803 39.776C341.346 39.5333 340.972 39.2347 340.683 38.88V43.668H339.087V32.286H340.683V33.42ZM345.373 36.108C345.373 35.576 345.261 35.1187 345.037 34.736C344.822 34.344 344.533 34.05 344.169 33.854C343.814 33.6487 343.432 33.546 343.021 33.546C342.62 33.546 342.237 33.6487 341.873 33.854C341.518 34.0593 341.229 34.358 341.005 34.75C340.79 35.142 340.683 35.604 340.683 36.136C340.683 36.668 340.79 37.1347 341.005 37.536C341.229 37.928 341.518 38.2267 341.873 38.432C342.237 38.6373 342.62 38.74 343.021 38.74C343.432 38.74 343.814 38.6373 344.169 38.432C344.533 38.2173 344.822 37.9093 345.037 37.508C345.261 37.1067 345.373 36.64 345.373 36.108ZM350.171 32.286V40H348.575V32.286H350.171ZM359.211 32.286L354.479 43.626H352.827L354.395 39.874L351.357 32.286H353.135L355.305 38.166L357.559 32.286H359.211ZM363.761 40.126C363.033 40.126 362.375 39.9627 361.787 39.636C361.199 39.3 360.737 38.8333 360.401 38.236C360.065 37.6293 359.897 36.9293 359.897 36.136C359.897 35.352 360.07 34.6567 360.415 34.05C360.761 33.4433 361.232 32.9767 361.829 32.65C362.427 32.3233 363.094 32.16 363.831 32.16C364.569 32.16 365.236 32.3233 365.833 32.65C366.431 32.9767 366.902 33.4433 367.247 34.05C367.593 34.6567 367.765 35.352 367.765 36.136C367.765 36.92 367.588 37.6153 367.233 38.222C366.879 38.8287 366.393 39.3 365.777 39.636C365.171 39.9627 364.499 40.126 363.761 40.126ZM363.761 38.74C364.172 38.74 364.555 38.642 364.909 38.446C365.273 38.25 365.567 37.956 365.791 37.564C366.015 37.172 366.127 36.696 366.127 36.136C366.127 35.576 366.02 35.1047 365.805 34.722C365.591 34.33 365.306 34.036 364.951 33.84C364.597 33.644 364.214 33.546 363.803 33.546C363.393 33.546 363.01 33.644 362.655 33.84C362.31 34.036 362.035 34.33 361.829 34.722C361.624 35.1047 361.521 35.576 361.521 36.136C361.521 36.9667 361.731 37.6107 362.151 38.068C362.581 38.516 363.117 38.74 363.761 38.74ZM370.939 33.406C371.172 33.014 371.48 32.7107 371.863 32.496C372.255 32.272 372.717 32.16 373.249 32.16V33.812H372.843C372.218 33.812 371.742 33.9707 371.415 34.288C371.098 34.6053 370.939 35.156 370.939 35.94V40H369.343V32.286H370.939V33.406ZM381.702 32.286V40H380.106V39.09C379.854 39.4073 379.523 39.6593 379.112 39.846C378.711 40.0233 378.281 40.112 377.824 40.112C377.217 40.112 376.671 39.986 376.186 39.734C375.71 39.482 375.332 39.1087 375.052 38.614C374.781 38.1193 374.646 37.522 374.646 36.822V32.286H376.228V36.584C376.228 37.2747 376.401 37.8067 376.746 38.18C377.091 38.544 377.563 38.726 378.16 38.726C378.757 38.726 379.229 38.544 379.574 38.18C379.929 37.8067 380.106 37.2747 380.106 36.584V32.286H381.702ZM385.222 38.698H388.722V40H383.374V38.698L386.888 33.588H383.374V32.286H388.722V33.588L385.222 38.698ZM393.016 30.13C393.968 30.13 394.728 30.3913 395.298 30.914C395.876 31.4367 396.166 32.1507 396.166 33.056C396.166 33.9987 395.867 34.708 395.27 35.184C394.672 35.66 393.879 35.898 392.89 35.898L392.834 37.004H391.448L391.378 34.806H391.84C392.745 34.806 393.436 34.6847 393.912 34.442C394.397 34.1993 394.64 33.7373 394.64 33.056C394.64 32.5613 394.495 32.174 394.206 31.894C393.926 31.614 393.534 31.474 393.03 31.474C392.526 31.474 392.129 31.6093 391.84 31.88C391.55 32.1507 391.406 32.5287 391.406 33.014H389.908C389.908 32.454 390.034 31.9547 390.286 31.516C390.538 31.0773 390.897 30.7367 391.364 30.494C391.84 30.2513 392.39 30.13 393.016 30.13ZM392.12 40.098C391.83 40.098 391.588 40 391.392 39.804C391.196 39.608 391.098 39.3653 391.098 39.076C391.098 38.7867 391.196 38.544 391.392 38.348C391.588 38.152 391.83 38.054 392.12 38.054C392.4 38.054 392.638 38.152 392.834 38.348C393.03 38.544 393.128 38.7867 393.128 39.076C393.128 39.3653 393.03 39.608 392.834 39.804C392.638 40 392.4 40.098 392.12 40.098Z" fill="white"/>
<path d="M436.854 33.168C436.854 33.6627 436.737 34.1293 436.504 34.568C436.271 35.0067 435.897 35.366 435.384 35.646C434.871 35.9167 434.213 36.052 433.41 36.052H431.646V40H430.05V30.27H433.41C434.157 30.27 434.787 30.4007 435.3 30.662C435.823 30.914 436.21 31.2593 436.462 31.698C436.723 32.1367 436.854 32.6267 436.854 33.168ZM433.41 34.75C434.017 34.75 434.469 34.6147 434.768 34.344C435.067 34.064 435.216 33.672 435.216 33.168C435.216 32.104 434.614 31.572 433.41 31.572H431.646V34.75H433.41ZM439.972 33.406C440.206 33.014 440.514 32.7107 440.896 32.496C441.288 32.272 441.75 32.16 442.282 32.16V33.812H441.876C441.251 33.812 440.775 33.9707 440.448 34.288C440.131 34.6053 439.972 35.156 439.972 35.94V40H438.376V32.286H439.972V33.406ZM447.095 40.126C446.367 40.126 445.709 39.9627 445.121 39.636C444.533 39.3 444.071 38.8333 443.735 38.236C443.399 37.6293 443.231 36.9293 443.231 36.136C443.231 35.352 443.404 34.6567 443.749 34.05C444.095 33.4433 444.566 32.9767 445.163 32.65C445.761 32.3233 446.428 32.16 447.165 32.16C447.903 32.16 448.57 32.3233 449.167 32.65C449.765 32.9767 450.236 33.4433 450.581 34.05C450.927 34.6567 451.099 35.352 451.099 36.136C451.099 36.92 450.922 37.6153 450.567 38.222C450.213 38.8287 449.727 39.3 449.111 39.636C448.505 39.9627 447.833 40.126 447.095 40.126ZM447.095 38.74C447.506 38.74 447.889 38.642 448.243 38.446C448.607 38.25 448.901 37.956 449.125 37.564C449.349 37.172 449.461 36.696 449.461 36.136C449.461 35.576 449.354 35.1047 449.139 34.722C448.925 34.33 448.64 34.036 448.285 33.84C447.931 33.644 447.548 33.546 447.137 33.546C446.727 33.546 446.344 33.644 445.989 33.84C445.644 34.036 445.369 34.33 445.163 34.722C444.958 35.1047 444.855 35.576 444.855 36.136C444.855 36.9667 445.065 37.6107 445.485 38.068C445.915 38.516 446.451 38.74 447.095 38.74ZM453.489 31.264C453.2 31.264 452.957 31.166 452.761 30.97C452.565 30.774 452.467 30.5313 452.467 30.242C452.467 29.9527 452.565 29.71 452.761 29.514C452.957 29.318 453.2 29.22 453.489 29.22C453.769 29.22 454.007 29.318 454.203 29.514C454.399 29.71 454.497 29.9527 454.497 30.242C454.497 30.5313 454.399 30.774 454.203 30.97C454.007 31.166 453.769 31.264 453.489 31.264ZM454.273 41.512C454.273 42.268 454.082 42.814 453.699 43.15C453.326 43.4953 452.78 43.668 452.061 43.668H451.235V42.324H451.781C452.108 42.324 452.336 42.2587 452.467 42.128C452.607 42.0067 452.677 41.8013 452.677 41.512V32.286H454.273V41.512ZM463.438 35.954C463.438 36.2433 463.42 36.5047 463.382 36.738H457.488C457.535 37.354 457.764 37.8487 458.174 38.222C458.585 38.5953 459.089 38.782 459.686 38.782C460.545 38.782 461.152 38.4227 461.506 37.704H463.228C462.995 38.4133 462.57 38.9967 461.954 39.454C461.348 39.902 460.592 40.126 459.686 40.126C458.949 40.126 458.286 39.9627 457.698 39.636C457.12 39.3 456.662 38.8333 456.326 38.236C456 37.6293 455.836 36.9293 455.836 36.136C455.836 35.3427 455.995 34.6473 456.312 34.05C456.639 33.4433 457.092 32.9767 457.67 32.65C458.258 32.3233 458.93 32.16 459.686 32.16C460.414 32.16 461.063 32.3187 461.632 32.636C462.202 32.9533 462.645 33.4013 462.962 33.98C463.28 34.5493 463.438 35.2073 463.438 35.954ZM461.772 35.45C461.763 34.862 461.553 34.3907 461.142 34.036C460.732 33.6813 460.223 33.504 459.616 33.504C459.066 33.504 458.594 33.6813 458.202 34.036C457.81 34.3813 457.577 34.8527 457.502 35.45H461.772ZM466.605 29.64V40H465.009V29.64H466.605ZM475.77 35.954C475.77 36.2433 475.752 36.5047 475.714 36.738H469.82C469.867 37.354 470.096 37.8487 470.506 38.222C470.917 38.5953 471.421 38.782 472.018 38.782C472.877 38.782 473.484 38.4227 473.838 37.704H475.56C475.327 38.4133 474.902 38.9967 474.286 39.454C473.68 39.902 472.924 40.126 472.018 40.126C471.281 40.126 470.618 39.9627 470.03 39.636C469.452 39.3 468.994 38.8333 468.658 38.236C468.332 37.6293 468.168 36.9293 468.168 36.136C468.168 35.3427 468.327 34.6473 468.644 34.05C468.971 33.4433 469.424 32.9767 470.002 32.65C470.59 32.3233 471.262 32.16 472.018 32.16C472.746 32.16 473.395 32.3187 473.964 32.636C474.534 32.9533 474.977 33.4013 475.294 33.98C475.612 34.5493 475.77 35.2073 475.77 35.954ZM474.104 35.45C474.095 34.862 473.885 34.3907 473.474 34.036C473.064 33.6813 472.555 33.504 471.948 33.504C471.398 33.504 470.926 33.6813 470.534 34.036C470.142 34.3813 469.909 34.8527 469.834 35.45H474.104ZM478.937 33.406C479.17 33.014 479.478 32.7107 479.861 32.496C480.253 32.272 480.715 32.16 481.247 32.16V33.812H480.841C480.216 33.812 479.74 33.9707 479.413 34.288C479.096 34.6053 478.937 35.156 478.937 35.94V40H477.341V32.286H478.937V33.406ZM483.526 31.264C483.237 31.264 482.994 31.166 482.798 30.97C482.602 30.774 482.504 30.5313 482.504 30.242C482.504 29.9527 482.602 29.71 482.798 29.514C482.994 29.318 483.237 29.22 483.526 29.22C483.806 29.22 484.044 29.318 484.24 29.514C484.436 29.71 484.534 29.9527 484.534 30.242C484.534 30.5313 484.436 30.774 484.24 30.97C484.044 31.166 483.806 31.264 483.526 31.264ZM484.31 32.286V40H482.714V32.286H484.31ZM495.743 32.16C496.35 32.16 496.891 32.286 497.367 32.538C497.853 32.79 498.231 33.1633 498.501 33.658C498.781 34.1527 498.921 34.75 498.921 35.45V40H497.339V35.688C497.339 34.9973 497.167 34.47 496.821 34.106C496.476 33.7327 496.005 33.546 495.407 33.546C494.81 33.546 494.334 33.7327 493.979 34.106C493.634 34.47 493.461 34.9973 493.461 35.688V40H491.879V35.688C491.879 34.9973 491.707 34.47 491.361 34.106C491.016 33.7327 490.545 33.546 489.947 33.546C489.35 33.546 488.874 33.7327 488.519 34.106C488.174 34.47 488.001 34.9973 488.001 35.688V40H486.405V32.286H488.001V33.168C488.263 32.8507 488.594 32.6033 488.995 32.426C489.397 32.2487 489.826 32.16 490.283 32.16C490.899 32.16 491.45 32.2907 491.935 32.552C492.421 32.8133 492.794 33.1913 493.055 33.686C493.289 33.2193 493.653 32.8507 494.147 32.58C494.642 32.3 495.174 32.16 495.743 32.16ZM501.764 31.264C501.475 31.264 501.232 31.166 501.036 30.97C500.84 30.774 500.742 30.5313 500.742 30.242C500.742 29.9527 500.84 29.71 501.036 29.514C501.232 29.318 501.475 29.22 501.764 29.22C502.044 29.22 502.282 29.318 502.478 29.514C502.674 29.71 502.772 29.9527 502.772 30.242C502.772 30.5313 502.674 30.774 502.478 30.97C502.282 31.166 502.044 31.264 501.764 31.264ZM502.548 32.286V40H500.952V32.286H502.548ZM506.058 38.698H509.558V40H504.21V38.698L507.724 33.588H504.21V32.286H509.558V33.588L506.058 38.698Z" fill="white"/>
<path d="M549.258 35.002C549.781 35.0953 550.224 35.3707 550.588 35.828C550.952 36.2853 551.134 36.8033 551.134 37.382C551.134 37.8767 551.003 38.3247 550.742 38.726C550.49 39.118 550.121 39.4307 549.636 39.664C549.151 39.888 548.586 40 547.942 40H544.05V30.27H547.76C548.423 30.27 548.992 30.382 549.468 30.606C549.944 30.83 550.303 31.1333 550.546 31.516C550.789 31.8893 550.91 32.3093 550.91 32.776C550.91 33.336 550.761 33.8027 550.462 34.176C550.163 34.5493 549.762 34.8247 549.258 35.002ZM545.646 34.358H547.62C548.143 34.358 548.549 34.2413 548.838 34.008C549.137 33.7653 549.286 33.42 549.286 32.972C549.286 32.5333 549.137 32.1927 548.838 31.95C548.549 31.698 548.143 31.572 547.62 31.572H545.646V34.358ZM547.802 38.698C548.343 38.698 548.768 38.5673 549.076 38.306C549.384 38.0447 549.538 37.6807 549.538 37.214C549.538 36.738 549.375 36.36 549.048 36.08C548.721 35.8 548.287 35.66 547.746 35.66H545.646V38.698H547.802ZM554.464 29.64V40H552.868V29.64H554.464ZM559.906 40.126C559.178 40.126 558.52 39.9627 557.932 39.636C557.344 39.3 556.882 38.8333 556.546 38.236C556.21 37.6293 556.042 36.9293 556.042 36.136C556.042 35.352 556.214 34.6567 556.56 34.05C556.905 33.4433 557.376 32.9767 557.974 32.65C558.571 32.3233 559.238 32.16 559.976 32.16C560.713 32.16 561.38 32.3233 561.978 32.65C562.575 32.9767 563.046 33.4433 563.392 34.05C563.737 34.6567 563.91 35.352 563.91 36.136C563.91 36.92 563.732 37.6153 563.378 38.222C563.023 38.8287 562.538 39.3 561.922 39.636C561.315 39.9627 560.643 40.126 559.906 40.126ZM559.906 38.74C560.316 38.74 560.699 38.642 561.054 38.446C561.418 38.25 561.712 37.956 561.936 37.564C562.16 37.172 562.272 36.696 562.272 36.136C562.272 35.576 562.164 35.1047 561.95 34.722C561.735 34.33 561.45 34.036 561.096 33.84C560.741 33.644 560.358 33.546 559.948 33.546C559.537 33.546 559.154 33.644 558.8 33.84C558.454 34.036 558.179 34.33 557.974 34.722C557.768 35.1047 557.666 35.576 557.666 36.136C557.666 36.9667 557.876 37.6107 558.296 38.068C558.725 38.516 559.262 38.74 559.906 38.74ZM568.596 32.16C569.193 32.16 569.72 32.2813 570.178 32.524C570.644 32.7573 571.008 33.0513 571.27 33.406V32.286H572.88V40.126C572.88 40.8353 572.73 41.4653 572.432 42.016C572.133 42.576 571.699 43.0147 571.13 43.332C570.57 43.6493 569.898 43.808 569.114 43.808C568.068 43.808 567.2 43.5607 566.51 43.066C565.819 42.5807 565.427 41.918 565.334 41.078H566.916C567.037 41.4793 567.294 41.8013 567.686 42.044C568.087 42.296 568.563 42.422 569.114 42.422C569.758 42.422 570.276 42.226 570.668 41.834C571.069 41.442 571.27 40.8727 571.27 40.126V38.838C570.999 39.202 570.63 39.51 570.164 39.762C569.706 40.0047 569.184 40.126 568.596 40.126C567.924 40.126 567.308 39.958 566.748 39.622C566.197 39.2767 565.758 38.8007 565.432 38.194C565.114 37.578 564.956 36.8827 564.956 36.108C564.956 35.3333 565.114 34.6473 565.432 34.05C565.758 33.4527 566.197 32.9907 566.748 32.664C567.308 32.328 567.924 32.16 568.596 32.16ZM571.27 36.136C571.27 35.604 571.158 35.142 570.934 34.75C570.719 34.358 570.434 34.0593 570.08 33.854C569.725 33.6487 569.342 33.546 568.932 33.546C568.521 33.546 568.138 33.6487 567.784 33.854C567.429 34.05 567.14 34.344 566.916 34.736C566.701 35.1187 566.594 35.576 566.594 36.108C566.594 36.64 566.701 37.1067 566.916 37.508C567.14 37.9093 567.429 38.2173 567.784 38.432C568.148 38.6373 568.53 38.74 568.932 38.74C569.342 38.74 569.725 38.6373 570.08 38.432C570.434 38.2267 570.719 37.928 570.934 37.536C571.158 37.1347 571.27 36.668 571.27 36.136Z" fill="white"/>
<path d="M1116.7 30.144C1117.65 30.144 1118.49 30.3587 1119.23 30.788C1119.97 31.208 1120.54 31.796 1120.95 32.552C1121.36 33.308 1121.57 34.1667 1121.57 35.128C1121.57 36.0893 1121.36 36.9527 1120.95 37.718C1120.54 38.474 1119.97 39.0667 1119.23 39.496C1118.49 39.916 1117.65 40.126 1116.7 40.126C1115.75 40.126 1114.9 39.916 1114.15 39.496C1113.41 39.0667 1112.84 38.474 1112.43 37.718C1112.02 36.9527 1111.81 36.0893 1111.81 35.128C1111.81 34.1667 1112.02 33.308 1112.43 32.552C1112.84 31.796 1113.41 31.208 1114.15 30.788C1114.9 30.3587 1115.75 30.144 1116.7 30.144ZM1116.7 30.788C1115.85 30.788 1115.11 30.9653 1114.47 31.32C1113.85 31.6747 1113.36 32.1833 1113.02 32.846C1112.68 33.4993 1112.51 34.26 1112.51 35.128C1112.51 35.996 1112.68 36.7567 1113.02 37.41C1113.36 38.0633 1113.85 38.572 1114.47 38.936C1115.11 39.3 1115.85 39.482 1116.7 39.482C1117.54 39.482 1118.27 39.3 1118.9 38.936C1119.53 38.572 1120.02 38.0633 1120.35 37.41C1120.7 36.7567 1120.87 35.996 1120.87 35.128C1120.87 34.26 1120.7 33.4993 1120.35 32.846C1120.02 32.1833 1119.54 31.6747 1118.91 31.32C1118.28 30.9653 1117.55 30.788 1116.7 30.788ZM1116.66 31.908C1116.09 31.908 1115.57 32.0433 1115.1 32.314C1114.64 32.5753 1114.27 32.9487 1114 33.434C1113.73 33.9193 1113.6 34.4793 1113.6 35.114C1113.6 35.7487 1113.74 36.3133 1114.01 36.808C1114.28 37.2933 1114.64 37.6713 1115.1 37.942C1115.57 38.2033 1116.09 38.334 1116.66 38.334C1117.37 38.334 1117.98 38.1473 1118.49 37.774C1119 37.3913 1119.35 36.892 1119.53 36.276H1118.07C1117.95 36.5747 1117.78 36.8033 1117.55 36.962C1117.33 37.1207 1117.03 37.2 1116.66 37.2C1116.16 37.2 1115.76 37.0227 1115.47 36.668C1115.17 36.304 1115.02 35.786 1115.02 35.114C1115.02 34.442 1115.17 33.9287 1115.47 33.574C1115.76 33.2193 1116.16 33.042 1116.66 33.042C1117.01 33.042 1117.31 33.1213 1117.55 33.28C1117.8 33.4387 1117.98 33.6673 1118.07 33.966H1119.53C1119.35 33.3127 1119.01 32.8087 1118.5 32.454C1118 32.09 1117.38 31.908 1116.66 31.908ZM1127.57 37.83C1128.47 37.0553 1129.17 36.4207 1129.69 35.926C1130.21 35.422 1130.64 34.8993 1130.99 34.358C1131.33 33.8167 1131.51 33.2753 1131.51 32.734C1131.51 32.174 1131.37 31.7353 1131.1 31.418C1130.84 31.1007 1130.42 30.942 1129.86 30.942C1129.3 30.942 1128.88 31.1193 1128.57 31.474C1128.27 31.8193 1128.11 32.286 1128.09 32.874H1126.55C1126.58 31.81 1126.9 30.998 1127.5 30.438C1128.12 29.8687 1128.9 29.584 1129.84 29.584C1130.86 29.584 1131.65 29.864 1132.22 30.424C1132.8 30.984 1133.09 31.7307 1133.09 32.664C1133.09 33.336 1132.92 33.9847 1132.57 34.61C1132.24 35.226 1131.83 35.7813 1131.35 36.276C1130.89 36.7613 1130.29 37.326 1129.56 37.97L1128.93 38.53H1133.37V39.86H1126.57V38.698L1127.57 37.83ZM1134.77 34.764C1134.77 33.1493 1135.04 31.8893 1135.58 30.984C1136.13 30.0693 1137.08 29.612 1138.41 29.612C1139.75 29.612 1140.68 30.0693 1141.23 30.984C1141.78 31.8893 1142.05 33.1493 1142.05 34.764C1142.05 36.3973 1141.78 37.676 1141.23 38.6C1140.68 39.5147 1139.75 39.972 1138.41 39.972C1137.08 39.972 1136.13 39.5147 1135.58 38.6C1135.04 37.676 1134.77 36.3973 1134.77 34.764ZM1140.48 34.764C1140.48 34.008 1140.43 33.3687 1140.33 32.846C1140.24 32.3233 1140.04 31.8987 1139.74 31.572C1139.44 31.236 1139 31.068 1138.41 31.068C1137.82 31.068 1137.38 31.236 1137.08 31.572C1136.78 31.8987 1136.58 32.3233 1136.48 32.846C1136.39 33.3687 1136.34 34.008 1136.34 34.764C1136.34 35.548 1136.39 36.206 1136.48 36.738C1136.57 37.27 1136.77 37.6993 1137.07 38.026C1137.38 38.3527 1137.82 38.516 1138.41 38.516C1139 38.516 1139.44 38.3527 1139.74 38.026C1140.05 37.6993 1140.25 37.27 1140.34 36.738C1140.44 36.206 1140.48 35.548 1140.48 34.764ZM1144.62 37.83C1145.52 37.0553 1146.22 36.4207 1146.74 35.926C1147.26 35.422 1147.69 34.8993 1148.04 34.358C1148.38 33.8167 1148.56 33.2753 1148.56 32.734C1148.56 32.174 1148.42 31.7353 1148.15 31.418C1147.89 31.1007 1147.47 30.942 1146.9 30.942C1146.35 30.942 1145.92 31.1193 1145.62 31.474C1145.32 31.8193 1145.16 32.286 1145.14 32.874H1143.6C1143.63 31.81 1143.95 30.998 1144.55 30.438C1145.17 29.8687 1145.95 29.584 1146.89 29.584C1147.91 29.584 1148.7 29.864 1149.27 30.424C1149.85 30.984 1150.14 31.7307 1150.14 32.664C1150.14 33.336 1149.97 33.9847 1149.62 34.61C1149.28 35.226 1148.88 35.7813 1148.4 36.276C1147.94 36.7613 1147.34 37.326 1146.61 37.97L1145.98 38.53H1150.42V39.86H1143.61V38.698L1144.62 37.83ZM1151.61 31.25V29.794H1154.52V40H1152.91V31.25H1151.61ZM1160.03 35.114C1160.03 34.162 1160.25 33.308 1160.69 32.552C1161.14 31.796 1161.74 31.208 1162.49 30.788C1163.26 30.3587 1164.09 30.144 1165 30.144C1166.04 30.144 1166.96 30.4007 1167.76 30.914C1168.57 31.418 1169.16 32.1367 1169.52 33.07H1167.6C1167.35 32.5567 1167 32.174 1166.55 31.922C1166.11 31.67 1165.59 31.544 1165 31.544C1164.36 31.544 1163.78 31.6887 1163.28 31.978C1162.77 32.2673 1162.38 32.6827 1162.09 33.224C1161.81 33.7653 1161.67 34.3953 1161.67 35.114C1161.67 35.8327 1161.81 36.4627 1162.09 37.004C1162.38 37.5453 1162.77 37.9653 1163.28 38.264C1163.78 38.5533 1164.36 38.698 1165 38.698C1165.59 38.698 1166.11 38.572 1166.55 38.32C1167 38.068 1167.35 37.6853 1167.6 37.172H1169.52C1169.16 38.1053 1168.57 38.824 1167.76 39.328C1166.96 39.832 1166.04 40.084 1165 40.084C1164.09 40.084 1163.25 39.874 1162.49 39.454C1161.74 39.0247 1161.14 38.432 1160.69 37.676C1160.25 36.92 1160.03 36.066 1160.03 35.114ZM1170.86 36.108C1170.86 35.3333 1171.02 34.6473 1171.33 34.05C1171.66 33.4527 1172.1 32.9907 1172.65 32.664C1173.21 32.328 1173.83 32.16 1174.5 32.16C1175.1 32.16 1175.63 32.2813 1176.08 32.524C1176.54 32.7573 1176.9 33.0513 1177.17 33.406V32.286H1178.78V40H1177.17V38.852C1176.9 39.216 1176.53 39.5193 1176.07 39.762C1175.6 40.0047 1175.07 40.126 1174.47 40.126C1173.81 40.126 1173.2 39.958 1172.65 39.622C1172.1 39.2767 1171.66 38.8007 1171.33 38.194C1171.02 37.578 1170.86 36.8827 1170.86 36.108ZM1177.17 36.136C1177.17 35.604 1177.06 35.142 1176.84 34.75C1176.62 34.358 1176.34 34.0593 1175.98 33.854C1175.63 33.6487 1175.24 33.546 1174.83 33.546C1174.42 33.546 1174.04 33.6487 1173.69 33.854C1173.33 34.05 1173.04 34.344 1172.82 34.736C1172.6 35.1187 1172.5 35.576 1172.5 36.108C1172.5 36.64 1172.6 37.1067 1172.82 37.508C1173.04 37.9093 1173.33 38.2173 1173.69 38.432C1174.05 38.6373 1174.43 38.74 1174.83 38.74C1175.24 38.74 1175.63 38.6373 1175.98 38.432C1176.34 38.2267 1176.62 37.928 1176.84 37.536C1177.06 37.1347 1177.17 36.668 1177.17 36.136ZM1184.77 32.16C1185.38 32.16 1185.92 32.286 1186.39 32.538C1186.88 32.79 1187.26 33.1633 1187.53 33.658C1187.8 34.1527 1187.93 34.75 1187.93 35.45V40H1186.35V35.688C1186.35 34.9973 1186.18 34.47 1185.83 34.106C1185.49 33.7327 1185.02 33.546 1184.42 33.546C1183.82 33.546 1183.35 33.7327 1182.99 34.106C1182.65 34.47 1182.47 34.9973 1182.47 35.688V40H1180.88V32.286H1182.47V33.168C1182.74 32.8507 1183.07 32.6033 1183.47 32.426C1183.88 32.2487 1184.31 32.16 1184.77 32.16ZM1198.04 38.698C1198.63 38.698 1199.15 38.572 1199.6 38.32C1200.05 38.068 1200.4 37.6853 1200.65 37.172H1202.57C1202.23 38.0307 1201.71 38.712 1201 39.216C1200.29 39.7107 1199.47 39.9953 1198.53 40.07V40.672C1199.08 40.672 1199.51 40.798 1199.85 41.05C1200.19 41.3113 1200.35 41.6753 1200.35 42.142C1200.35 42.6087 1200.19 42.9773 1199.85 43.248C1199.51 43.528 1199.09 43.668 1198.58 43.668H1196.73V42.66H1198.25C1198.52 42.66 1198.71 42.6227 1198.84 42.548C1198.97 42.4733 1199.04 42.338 1199.04 42.142C1199.04 41.946 1198.97 41.8107 1198.84 41.736C1198.71 41.6613 1198.52 41.624 1198.25 41.624H1197.48V40.056C1196.66 39.972 1195.92 39.7107 1195.24 39.272C1194.57 38.8333 1194.04 38.2547 1193.65 37.536C1193.27 36.808 1193.07 36.0007 1193.07 35.114C1193.07 34.162 1193.29 33.308 1193.73 32.552C1194.18 31.796 1194.78 31.208 1195.54 30.788C1196.3 30.3587 1197.14 30.144 1198.04 30.144C1199.08 30.144 1200 30.4007 1200.8 30.914C1201.61 31.418 1202.2 32.1367 1202.57 33.07H1200.65C1200.4 32.5567 1200.05 32.174 1199.6 31.922C1199.15 31.67 1198.63 31.544 1198.04 31.544C1197.4 31.544 1196.83 31.6887 1196.32 31.978C1195.82 32.2673 1195.42 32.6827 1195.13 33.224C1194.85 33.7653 1194.71 34.3953 1194.71 35.114C1194.71 35.8327 1194.85 36.4627 1195.13 37.004C1195.42 37.5453 1195.82 37.9653 1196.32 38.264C1196.83 38.5533 1197.4 38.698 1198.04 38.698ZM1211.5 35.954C1211.5 36.2433 1211.49 36.5047 1211.45 36.738H1205.55C1205.6 37.354 1205.83 37.8487 1206.24 38.222C1206.65 38.5953 1207.16 38.782 1207.75 38.782C1208.61 38.782 1209.22 38.4227 1209.57 37.704H1211.29C1211.06 38.4133 1210.64 38.9967 1210.02 39.454C1209.41 39.902 1208.66 40.126 1207.75 40.126C1207.02 40.126 1206.35 39.9627 1205.76 39.636C1205.19 39.3 1204.73 38.8333 1204.39 38.236C1204.07 37.6293 1203.9 36.9293 1203.9 36.136C1203.9 35.3427 1204.06 34.6473 1204.38 34.05C1204.71 33.4433 1205.16 32.9767 1205.74 32.65C1206.32 32.3233 1207 32.16 1207.75 32.16C1208.48 32.16 1209.13 32.3187 1209.7 32.636C1210.27 32.9533 1210.71 33.4013 1211.03 33.98C1211.35 34.5493 1211.5 35.2073 1211.5 35.954ZM1209.84 35.45C1209.83 34.862 1209.62 34.3907 1209.21 34.036C1208.8 33.6813 1208.29 33.504 1207.68 33.504C1207.13 33.504 1206.66 33.6813 1206.27 34.036C1205.88 34.3813 1205.64 34.8527 1205.57 35.45H1209.84ZM1216.06 38.572L1218.24 32.286H1219.94L1217 40H1215.09L1212.17 32.286H1213.87L1216.06 38.572ZM1221.95 31.264C1221.66 31.264 1221.42 31.166 1221.23 30.97C1221.03 30.774 1220.93 30.5313 1220.93 30.242C1220.93 29.9527 1221.03 29.71 1221.23 29.514C1221.42 29.318 1221.66 29.22 1221.95 29.22C1222.23 29.22 1222.47 29.318 1222.67 29.514C1222.86 29.71 1222.96 29.9527 1222.96 30.242C1222.96 30.5313 1222.86 30.774 1222.67 30.97C1222.47 31.166 1222.23 31.264 1221.95 31.264ZM1222.74 32.286V40H1221.14V32.286H1222.74ZM1227.89 36.15L1231.44 40H1229.29L1226.43 36.682V40H1224.83V29.64H1226.43V35.66L1229.23 32.286H1231.44L1227.89 36.15ZM1233.23 40.098C1232.94 40.098 1232.7 40 1232.5 39.804C1232.31 39.608 1232.21 39.3653 1232.21 39.076C1232.21 38.7867 1232.31 38.544 1232.5 38.348C1232.7 38.152 1232.94 38.054 1233.23 38.054C1233.51 38.054 1233.75 38.152 1233.94 38.348C1234.14 38.544 1234.24 38.7867 1234.24 39.076C1234.24 39.3653 1234.14 39.608 1233.94 39.804C1233.75 40 1233.51 40.098 1233.23 40.098ZM1245.46 38.012H1241.39L1240.69 40H1239.02L1242.51 30.256H1244.36L1247.84 40H1246.16L1245.46 38.012ZM1245.02 36.71L1243.43 32.188L1241.84 36.71H1245.02ZM1250.96 29.64V40H1249.36V29.64H1250.96ZM1254.65 29.64V40H1253.05V29.64H1254.65ZM1261.98 33.406C1262.21 33.014 1262.52 32.7107 1262.9 32.496C1263.29 32.272 1263.75 32.16 1264.29 32.16V33.812H1263.88C1263.25 33.812 1262.78 33.9707 1262.45 34.288C1262.13 34.6053 1261.98 35.156 1261.98 35.94V40H1260.38V32.286H1261.98V33.406ZM1266.57 31.264C1266.28 31.264 1266.03 31.166 1265.84 30.97C1265.64 30.774 1265.54 30.5313 1265.54 30.242C1265.54 29.9527 1265.64 29.71 1265.84 29.514C1266.03 29.318 1266.28 29.22 1266.57 29.22C1266.85 29.22 1267.08 29.318 1267.28 29.514C1267.48 29.71 1267.57 29.9527 1267.57 30.242C1267.57 30.5313 1267.48 30.774 1267.28 30.97C1267.08 31.166 1266.85 31.264 1266.57 31.264ZM1267.35 32.286V40H1265.75V32.286H1267.35ZM1272.55 32.16C1273.15 32.16 1273.68 32.2813 1274.13 32.524C1274.6 32.7573 1274.97 33.0513 1275.23 33.406V32.286H1276.84V40.126C1276.84 40.8353 1276.69 41.4653 1276.39 42.016C1276.09 42.576 1275.66 43.0147 1275.09 43.332C1274.53 43.6493 1273.85 43.808 1273.07 43.808C1272.03 43.808 1271.16 43.5607 1270.47 43.066C1269.78 42.5807 1269.38 41.918 1269.29 41.078H1270.87C1270.99 41.4793 1271.25 41.8013 1271.64 42.044C1272.04 42.296 1272.52 42.422 1273.07 42.422C1273.71 42.422 1274.23 42.226 1274.62 41.834C1275.03 41.442 1275.23 40.8727 1275.23 40.126V38.838C1274.96 39.202 1274.59 39.51 1274.12 39.762C1273.66 40.0047 1273.14 40.126 1272.55 40.126C1271.88 40.126 1271.26 39.958 1270.7 39.622C1270.15 39.2767 1269.72 38.8007 1269.39 38.194C1269.07 37.578 1268.91 36.8827 1268.91 36.108C1268.91 35.3333 1269.07 34.6473 1269.39 34.05C1269.72 33.4527 1270.15 32.9907 1270.7 32.664C1271.26 32.328 1271.88 32.16 1272.55 32.16ZM1275.23 36.136C1275.23 35.604 1275.11 35.142 1274.89 34.75C1274.68 34.358 1274.39 34.0593 1274.04 33.854C1273.68 33.6487 1273.3 33.546 1272.89 33.546C1272.48 33.546 1272.1 33.6487 1271.74 33.854C1271.39 34.05 1271.1 34.344 1270.87 34.736C1270.66 35.1187 1270.55 35.576 1270.55 36.108C1270.55 36.64 1270.66 37.1067 1270.87 37.508C1271.1 37.9093 1271.39 38.2173 1271.74 38.432C1272.1 38.6373 1272.49 38.74 1272.89 38.74C1273.3 38.74 1273.68 38.6373 1274.04 38.432C1274.39 38.2267 1274.68 37.928 1274.89 37.536C1275.11 37.1347 1275.23 36.668 1275.23 36.136ZM1282.92 32.16C1283.51 32.16 1284.03 32.286 1284.49 32.538C1284.96 32.79 1285.32 33.1633 1285.58 33.658C1285.85 34.1527 1285.99 34.75 1285.99 35.45V40H1284.41V35.688C1284.41 34.9973 1284.23 34.47 1283.89 34.106C1283.54 33.7327 1283.07 33.546 1282.47 33.546C1281.88 33.546 1281.4 33.7327 1281.05 34.106C1280.7 34.47 1280.53 34.9973 1280.53 35.688V40H1278.93V29.64H1280.53V33.182C1280.8 32.8553 1281.14 32.6033 1281.55 32.426C1281.97 32.2487 1282.43 32.16 1282.92 32.16ZM1289.89 33.588V37.858C1289.89 38.1473 1289.95 38.3573 1290.08 38.488C1290.22 38.6093 1290.46 38.67 1290.78 38.67H1291.76V40H1290.5C1289.78 40 1289.23 39.832 1288.85 39.496C1288.47 39.16 1288.28 38.614 1288.28 37.858V33.588H1287.37V32.286H1288.28V30.368H1289.89V32.286H1291.76V33.588H1289.89ZM1296.03 40.126C1295.43 40.126 1294.88 40.0187 1294.4 39.804C1293.92 39.58 1293.54 39.2813 1293.26 38.908C1292.98 38.5253 1292.83 38.1007 1292.81 37.634H1294.47C1294.49 37.9607 1294.65 38.236 1294.93 38.46C1295.22 38.6747 1295.58 38.782 1296.01 38.782C1296.45 38.782 1296.8 38.698 1297.04 38.53C1297.29 38.3527 1297.42 38.1287 1297.42 37.858C1297.42 37.5687 1297.28 37.354 1297 37.214C1296.73 37.074 1296.29 36.92 1295.7 36.752C1295.12 36.5933 1294.65 36.4393 1294.28 36.29C1293.92 36.1407 1293.6 35.912 1293.33 35.604C1293.07 35.296 1292.94 34.89 1292.94 34.386C1292.94 33.9753 1293.06 33.602 1293.3 33.266C1293.55 32.9207 1293.89 32.65 1294.34 32.454C1294.8 32.258 1295.32 32.16 1295.91 32.16C1296.78 32.16 1297.49 32.384 1298.02 32.832C1298.56 33.2707 1298.85 33.8727 1298.89 34.638H1297.29C1297.27 34.2927 1297.13 34.0173 1296.87 33.812C1296.62 33.6067 1296.28 33.504 1295.85 33.504C1295.43 33.504 1295.11 33.5833 1294.89 33.742C1294.66 33.9007 1294.55 34.1107 1294.55 34.372C1294.55 34.5773 1294.62 34.75 1294.77 34.89C1294.92 35.03 1295.1 35.142 1295.32 35.226C1295.53 35.3007 1295.85 35.3987 1296.27 35.52C1296.83 35.6693 1297.29 35.8233 1297.64 35.982C1298.01 36.1313 1298.32 36.3553 1298.58 36.654C1298.84 36.9527 1298.98 37.3493 1298.99 37.844C1298.99 38.2827 1298.87 38.6747 1298.62 39.02C1298.38 39.3653 1298.04 39.636 1297.59 39.832C1297.15 40.028 1296.63 40.126 1296.03 40.126ZM1305.94 33.406C1306.18 33.014 1306.49 32.7107 1306.87 32.496C1307.26 32.272 1307.72 32.16 1308.25 32.16V33.812H1307.85C1307.22 33.812 1306.75 33.9707 1306.42 34.288C1306.1 34.6053 1305.94 35.156 1305.94 35.94V40H1304.35V32.286H1305.94V33.406ZM1316.79 35.954C1316.79 36.2433 1316.77 36.5047 1316.74 36.738H1310.84C1310.89 37.354 1311.12 37.8487 1311.53 38.222C1311.94 38.5953 1312.44 38.782 1313.04 38.782C1313.9 38.782 1314.51 38.4227 1314.86 37.704H1316.58C1316.35 38.4133 1315.92 38.9967 1315.31 39.454C1314.7 39.902 1313.95 40.126 1313.04 40.126C1312.3 40.126 1311.64 39.9627 1311.05 39.636C1310.47 39.3 1310.02 38.8333 1309.68 38.236C1309.35 37.6293 1309.19 36.9293 1309.19 36.136C1309.19 35.3427 1309.35 34.6473 1309.67 34.05C1309.99 33.4433 1310.45 32.9767 1311.02 32.65C1311.61 32.3233 1312.28 32.16 1313.04 32.16C1313.77 32.16 1314.42 32.3187 1314.99 32.636C1315.56 32.9533 1316 33.4013 1316.32 33.98C1316.63 34.5493 1316.79 35.2073 1316.79 35.954ZM1315.13 35.45C1315.12 34.862 1314.91 34.3907 1314.5 34.036C1314.09 33.6813 1313.58 33.504 1312.97 33.504C1312.42 33.504 1311.95 33.6813 1311.56 34.036C1311.16 34.3813 1310.93 34.8527 1310.86 35.45H1315.13ZM1321.16 40.126C1320.56 40.126 1320.01 40.0187 1319.52 39.804C1319.05 39.58 1318.67 39.2813 1318.39 38.908C1318.11 38.5253 1317.96 38.1007 1317.94 37.634H1319.59C1319.62 37.9607 1319.78 38.236 1320.06 38.46C1320.35 38.6747 1320.71 38.782 1321.13 38.782C1321.58 38.782 1321.93 38.698 1322.17 38.53C1322.42 38.3527 1322.55 38.1287 1322.55 37.858C1322.55 37.5687 1322.41 37.354 1322.13 37.214C1321.86 37.074 1321.42 36.92 1320.83 36.752C1320.25 36.5933 1319.78 36.4393 1319.41 36.29C1319.05 36.1407 1318.73 35.912 1318.46 35.604C1318.2 35.296 1318.07 34.89 1318.07 34.386C1318.07 33.9753 1318.19 33.602 1318.43 33.266C1318.68 32.9207 1319.02 32.65 1319.47 32.454C1319.93 32.258 1320.45 32.16 1321.04 32.16C1321.91 32.16 1322.62 32.384 1323.15 32.832C1323.69 33.2707 1323.98 33.8727 1324.02 34.638H1322.42C1322.39 34.2927 1322.25 34.0173 1322 33.812C1321.75 33.6067 1321.41 33.504 1320.98 33.504C1320.56 33.504 1320.24 33.5833 1320.01 33.742C1319.79 33.9007 1319.68 34.1107 1319.68 34.372C1319.68 34.5773 1319.75 34.75 1319.9 34.89C1320.05 35.03 1320.23 35.142 1320.45 35.226C1320.66 35.3007 1320.98 35.3987 1321.4 35.52C1321.96 35.6693 1322.42 35.8233 1322.77 35.982C1323.14 36.1313 1323.45 36.3553 1323.71 36.654C1323.97 36.9527 1324.11 37.3493 1324.12 37.844C1324.12 38.2827 1324 38.6747 1323.75 39.02C1323.51 39.3653 1323.16 39.636 1322.72 39.832C1322.28 40.028 1321.76 40.126 1321.16 40.126ZM1332.91 35.954C1332.91 36.2433 1332.89 36.5047 1332.86 36.738H1326.96C1327.01 37.354 1327.24 37.8487 1327.65 38.222C1328.06 38.5953 1328.56 38.782 1329.16 38.782C1330.02 38.782 1330.62 38.4227 1330.98 37.704H1332.7C1332.47 38.4133 1332.04 38.9967 1331.43 39.454C1330.82 39.902 1330.06 40.126 1329.16 40.126C1328.42 40.126 1327.76 39.9627 1327.17 39.636C1326.59 39.3 1326.14 38.8333 1325.8 38.236C1325.47 37.6293 1325.31 36.9293 1325.31 36.136C1325.31 35.3427 1325.47 34.6473 1325.79 34.05C1326.11 33.4433 1326.56 32.9767 1327.14 32.65C1327.73 32.3233 1328.4 32.16 1329.16 32.16C1329.89 32.16 1330.54 32.3187 1331.11 32.636C1331.67 32.9533 1332.12 33.4013 1332.44 33.98C1332.75 34.5493 1332.91 35.2073 1332.91 35.954ZM1331.25 35.45C1331.24 34.862 1331.03 34.3907 1330.62 34.036C1330.2 33.6813 1329.7 33.504 1329.09 33.504C1328.54 33.504 1328.07 33.6813 1327.68 34.036C1327.28 34.3813 1327.05 34.8527 1326.98 35.45H1331.25ZM1336.08 33.406C1336.31 33.014 1336.62 32.7107 1337 32.496C1337.39 32.272 1337.86 32.16 1338.39 32.16V33.812H1337.98C1337.36 33.812 1336.88 33.9707 1336.55 34.288C1336.24 34.6053 1336.08 35.156 1336.08 35.94V40H1334.48V32.286H1336.08V33.406ZM1342.84 38.572L1345.02 32.286H1346.71L1343.77 40H1341.87L1338.94 32.286H1340.65L1342.84 38.572ZM1354.99 35.954C1354.99 36.2433 1354.97 36.5047 1354.94 36.738H1349.04C1349.09 37.354 1349.32 37.8487 1349.73 38.222C1350.14 38.5953 1350.64 38.782 1351.24 38.782C1352.1 38.782 1352.7 38.4227 1353.06 37.704H1354.78C1354.55 38.4133 1354.12 38.9967 1353.51 39.454C1352.9 39.902 1352.14 40.126 1351.24 40.126C1350.5 40.126 1349.84 39.9627 1349.25 39.636C1348.67 39.3 1348.22 38.8333 1347.88 38.236C1347.55 37.6293 1347.39 36.9293 1347.39 36.136C1347.39 35.3427 1347.55 34.6473 1347.87 34.05C1348.19 33.4433 1348.64 32.9767 1349.22 32.65C1349.81 32.3233 1350.48 32.16 1351.24 32.16C1351.97 32.16 1352.62 32.3187 1353.19 32.636C1353.75 32.9533 1354.2 33.4013 1354.52 33.98C1354.83 34.5493 1354.99 35.2073 1354.99 35.954ZM1353.33 35.45C1353.32 34.862 1353.11 34.3907 1352.7 34.036C1352.28 33.6813 1351.78 33.504 1351.17 33.504C1350.62 33.504 1350.15 33.6813 1349.76 34.036C1349.36 34.3813 1349.13 34.8527 1349.06 35.45H1353.33ZM1356.03 36.108C1356.03 35.3333 1356.19 34.6473 1356.51 34.05C1356.83 33.4527 1357.27 32.9907 1357.82 32.664C1358.38 32.328 1359 32.16 1359.68 32.16C1360.19 32.16 1360.68 32.272 1361.17 32.496C1361.66 32.7107 1362.05 33 1362.34 33.364V29.64H1363.95V40H1362.34V38.838C1362.08 39.2113 1361.72 39.5193 1361.25 39.762C1360.79 40.0047 1360.27 40.126 1359.67 40.126C1359 40.126 1358.38 39.958 1357.82 39.622C1357.27 39.2767 1356.83 38.8007 1356.51 38.194C1356.19 37.578 1356.03 36.8827 1356.03 36.108ZM1362.34 36.136C1362.34 35.604 1362.23 35.142 1362.01 34.75C1361.79 34.358 1361.51 34.0593 1361.15 33.854C1360.8 33.6487 1360.42 33.546 1360.01 33.546C1359.6 33.546 1359.21 33.6487 1358.86 33.854C1358.5 34.05 1358.21 34.344 1357.99 34.736C1357.78 35.1187 1357.67 35.576 1357.67 36.108C1357.67 36.64 1357.78 37.1067 1357.99 37.508C1358.21 37.9093 1358.5 38.2173 1358.86 38.432C1359.22 38.6373 1359.6 38.74 1360.01 38.74C1360.42 38.74 1360.8 38.6373 1361.15 38.432C1361.51 38.2267 1361.79 37.928 1362.01 37.536C1362.23 37.1347 1362.34 36.668 1362.34 36.136Z" fill="white"/>
</svg>
